<mxfile host="app.diagrams.net" modified="2024-05-08T06:58:30.002Z" agent="Mozilla/5.0 (Windows NT 10.0; Win64; x64) AppleWebKit/537.36 (KHTML, like Gecko) Chrome/122.0.0.0 Safari/537.36" etag="_x1-ws-GYPqy4ENs3RZh" version="24.3.1" type="device">
  <diagram name="Halaman-1" id="oJ1Vof63SPK2qPvN9e-8">
    <mxGraphModel dx="2603" dy="1838" grid="1" gridSize="10" guides="1" tooltips="1" connect="1" arrows="1" fold="1" page="1" pageScale="1" pageWidth="827" pageHeight="1169" math="0" shadow="0">
      <root>
        <mxCell id="0" />
        <mxCell id="1" parent="0" />
        <mxCell id="UZwSARPS13LZiiZVVfHC-1" value="Film" style="rounded=0;whiteSpace=wrap;html=1;" vertex="1" parent="1">
          <mxGeometry x="354" y="290" width="120" height="60" as="geometry" />
        </mxCell>
        <mxCell id="UZwSARPS13LZiiZVVfHC-3" value="nama genre" style="ellipse;whiteSpace=wrap;html=1;" vertex="1" parent="1">
          <mxGeometry x="820" y="140" width="120" height="60" as="geometry" />
        </mxCell>
        <mxCell id="UZwSARPS13LZiiZVVfHC-4" value="genre" style="rounded=0;whiteSpace=wrap;html=1;" vertex="1" parent="1">
          <mxGeometry x="670" y="100" width="120" height="60" as="geometry" />
        </mxCell>
        <mxCell id="UZwSARPS13LZiiZVVfHC-8" style="edgeStyle=orthogonalEdgeStyle;rounded=0;orthogonalLoop=1;jettySize=auto;html=1;exitX=0.5;exitY=1;exitDx=0;exitDy=0;" edge="1" parent="1" source="UZwSARPS13LZiiZVVfHC-6" target="UZwSARPS13LZiiZVVfHC-6">
          <mxGeometry relative="1" as="geometry" />
        </mxCell>
        <mxCell id="UZwSARPS13LZiiZVVfHC-6" value="id genre" style="ellipse;whiteSpace=wrap;html=1;" vertex="1" parent="1">
          <mxGeometry x="820" y="60" width="120" height="50" as="geometry" />
        </mxCell>
        <mxCell id="UZwSARPS13LZiiZVVfHC-16" value="id dimension" style="ellipse;whiteSpace=wrap;html=1;" vertex="1" parent="1">
          <mxGeometry x="-90" y="60" width="120" height="50" as="geometry" />
        </mxCell>
        <mxCell id="UZwSARPS13LZiiZVVfHC-17" value="nama dimension" style="ellipse;whiteSpace=wrap;html=1;" vertex="1" parent="1">
          <mxGeometry x="-100" y="140" width="120" height="60" as="geometry" />
        </mxCell>
        <mxCell id="UZwSARPS13LZiiZVVfHC-24" value="kategori umur" style="ellipse;whiteSpace=wrap;html=1;" vertex="1" parent="1">
          <mxGeometry x="300" y="-60" width="120" height="50" as="geometry" />
        </mxCell>
        <mxCell id="UZwSARPS13LZiiZVVfHC-29" value="penulis" style="ellipse;whiteSpace=wrap;html=1;" vertex="1" parent="1">
          <mxGeometry x="670" y="10" width="120" height="50" as="geometry" />
        </mxCell>
        <mxCell id="UZwSARPS13LZiiZVVfHC-30" value="kategori" style="rhombus;whiteSpace=wrap;html=1;" vertex="1" parent="1">
          <mxGeometry x="115" y="245" width="70" height="60" as="geometry" />
        </mxCell>
        <mxCell id="UZwSARPS13LZiiZVVfHC-34" value="kategori" style="rhombus;whiteSpace=wrap;html=1;" vertex="1" parent="1">
          <mxGeometry x="690" y="240" width="70" height="60" as="geometry" />
        </mxCell>
        <mxCell id="UZwSARPS13LZiiZVVfHC-38" value="distributor" style="ellipse;whiteSpace=wrap;html=1;" vertex="1" parent="1">
          <mxGeometry x="430" y="-60" width="120" height="50" as="geometry" />
        </mxCell>
        <mxCell id="UZwSARPS13LZiiZVVfHC-39" value="durasi" style="ellipse;whiteSpace=wrap;html=1;" vertex="1" parent="1">
          <mxGeometry x="170" y="-40" width="120" height="50" as="geometry" />
        </mxCell>
        <mxCell id="UZwSARPS13LZiiZVVfHC-42" value="" style="endArrow=none;html=1;rounded=0;" edge="1" parent="1" source="UZwSARPS13LZiiZVVfHC-15" target="UZwSARPS13LZiiZVVfHC-16">
          <mxGeometry width="50" height="50" relative="1" as="geometry">
            <mxPoint x="50" y="110" as="sourcePoint" />
            <mxPoint x="100" y="60" as="targetPoint" />
          </mxGeometry>
        </mxCell>
        <mxCell id="UZwSARPS13LZiiZVVfHC-43" value="" style="endArrow=none;html=1;rounded=0;" edge="1" parent="1" source="UZwSARPS13LZiiZVVfHC-15" target="UZwSARPS13LZiiZVVfHC-17">
          <mxGeometry width="50" height="50" relative="1" as="geometry">
            <mxPoint x="100" y="125" as="sourcePoint" />
            <mxPoint x="31" y="108" as="targetPoint" />
          </mxGeometry>
        </mxCell>
        <mxCell id="UZwSARPS13LZiiZVVfHC-44" value="" style="endArrow=none;html=1;rounded=0;" edge="1" parent="1" source="UZwSARPS13LZiiZVVfHC-30" target="UZwSARPS13LZiiZVVfHC-1">
          <mxGeometry width="50" height="50" relative="1" as="geometry">
            <mxPoint x="300" y="270" as="sourcePoint" />
            <mxPoint x="350" y="220" as="targetPoint" />
          </mxGeometry>
        </mxCell>
        <mxCell id="UZwSARPS13LZiiZVVfHC-49" value="status film" style="ellipse;whiteSpace=wrap;html=1;" vertex="1" parent="1">
          <mxGeometry x="560" y="-30" width="120" height="50" as="geometry" />
        </mxCell>
        <mxCell id="UZwSARPS13LZiiZVVfHC-50" value="" style="endArrow=none;html=1;rounded=0;" edge="1" parent="1" source="UZwSARPS13LZiiZVVfHC-30" target="UZwSARPS13LZiiZVVfHC-15">
          <mxGeometry width="50" height="50" relative="1" as="geometry">
            <mxPoint x="184" y="180" as="sourcePoint" />
            <mxPoint x="370" y="187" as="targetPoint" />
          </mxGeometry>
        </mxCell>
        <mxCell id="UZwSARPS13LZiiZVVfHC-51" value="" style="endArrow=none;html=1;rounded=0;" edge="1" parent="1" source="UZwSARPS13LZiiZVVfHC-1" target="UZwSARPS13LZiiZVVfHC-34">
          <mxGeometry width="50" height="50" relative="1" as="geometry">
            <mxPoint x="470" y="230" as="sourcePoint" />
            <mxPoint x="410" y="238" as="targetPoint" />
          </mxGeometry>
        </mxCell>
        <mxCell id="UZwSARPS13LZiiZVVfHC-52" value="" style="endArrow=none;html=1;rounded=0;" edge="1" parent="1" source="UZwSARPS13LZiiZVVfHC-4" target="UZwSARPS13LZiiZVVfHC-34">
          <mxGeometry width="50" height="50" relative="1" as="geometry">
            <mxPoint x="530" y="240" as="sourcePoint" />
            <mxPoint x="700" y="240" as="targetPoint" />
          </mxGeometry>
        </mxCell>
        <mxCell id="UZwSARPS13LZiiZVVfHC-53" value="" style="endArrow=none;html=1;rounded=0;" edge="1" parent="1" source="UZwSARPS13LZiiZVVfHC-4" target="UZwSARPS13LZiiZVVfHC-3">
          <mxGeometry width="50" height="50" relative="1" as="geometry">
            <mxPoint x="739" y="170" as="sourcePoint" />
            <mxPoint x="736" y="211" as="targetPoint" />
          </mxGeometry>
        </mxCell>
        <mxCell id="UZwSARPS13LZiiZVVfHC-54" value="" style="endArrow=none;html=1;rounded=0;" edge="1" parent="1" source="UZwSARPS13LZiiZVVfHC-4" target="UZwSARPS13LZiiZVVfHC-6">
          <mxGeometry width="50" height="50" relative="1" as="geometry">
            <mxPoint x="800" y="156" as="sourcePoint" />
            <mxPoint x="837" y="166" as="targetPoint" />
          </mxGeometry>
        </mxCell>
        <mxCell id="UZwSARPS13LZiiZVVfHC-55" value="id_film" style="ellipse;whiteSpace=wrap;html=1;" vertex="1" parent="1">
          <mxGeometry x="40" width="120" height="50" as="geometry" />
        </mxCell>
        <mxCell id="UZwSARPS13LZiiZVVfHC-57" value="" style="endArrow=none;html=1;rounded=0;" edge="1" parent="1" source="UZwSARPS13LZiiZVVfHC-28" target="UZwSARPS13LZiiZVVfHC-1">
          <mxGeometry width="50" height="50" relative="1" as="geometry">
            <mxPoint x="184" y="239" as="sourcePoint" />
            <mxPoint x="364" y="307" as="targetPoint" />
          </mxGeometry>
        </mxCell>
        <mxCell id="UZwSARPS13LZiiZVVfHC-58" value="" style="endArrow=none;html=1;rounded=0;" edge="1" parent="1" source="UZwSARPS13LZiiZVVfHC-22" target="UZwSARPS13LZiiZVVfHC-1">
          <mxGeometry width="50" height="50" relative="1" as="geometry">
            <mxPoint x="424" y="255" as="sourcePoint" />
            <mxPoint x="424" y="300" as="targetPoint" />
          </mxGeometry>
        </mxCell>
        <mxCell id="UZwSARPS13LZiiZVVfHC-59" value="" style="endArrow=none;html=1;rounded=0;" edge="1" parent="1" source="UZwSARPS13LZiiZVVfHC-25" target="UZwSARPS13LZiiZVVfHC-1">
          <mxGeometry width="50" height="50" relative="1" as="geometry">
            <mxPoint x="307" y="169" as="sourcePoint" />
            <mxPoint x="402" y="300" as="targetPoint" />
          </mxGeometry>
        </mxCell>
        <mxCell id="UZwSARPS13LZiiZVVfHC-60" value="" style="endArrow=none;html=1;rounded=0;exitX=0.5;exitY=1;exitDx=0;exitDy=0;" edge="1" parent="1" source="UZwSARPS13LZiiZVVfHC-23" target="UZwSARPS13LZiiZVVfHC-1">
          <mxGeometry width="50" height="50" relative="1" as="geometry">
            <mxPoint x="424" y="170" as="sourcePoint" />
            <mxPoint x="424" y="300" as="targetPoint" />
          </mxGeometry>
        </mxCell>
        <mxCell id="UZwSARPS13LZiiZVVfHC-61" value="" style="endArrow=none;html=1;rounded=0;" edge="1" parent="1" source="UZwSARPS13LZiiZVVfHC-48" target="UZwSARPS13LZiiZVVfHC-1">
          <mxGeometry width="50" height="50" relative="1" as="geometry">
            <mxPoint x="424" y="170" as="sourcePoint" />
            <mxPoint x="420" y="310" as="targetPoint" />
          </mxGeometry>
        </mxCell>
        <mxCell id="UZwSARPS13LZiiZVVfHC-62" value="" style="endArrow=none;html=1;rounded=0;" edge="1" parent="1" source="UZwSARPS13LZiiZVVfHC-26" target="UZwSARPS13LZiiZVVfHC-1">
          <mxGeometry width="50" height="50" relative="1" as="geometry">
            <mxPoint x="560" y="170" as="sourcePoint" />
            <mxPoint x="450" y="300" as="targetPoint" />
          </mxGeometry>
        </mxCell>
        <mxCell id="UZwSARPS13LZiiZVVfHC-63" value="" style="endArrow=none;html=1;rounded=0;" edge="1" parent="1" source="UZwSARPS13LZiiZVVfHC-47" target="UZwSARPS13LZiiZVVfHC-1">
          <mxGeometry width="50" height="50" relative="1" as="geometry">
            <mxPoint x="620" y="99" as="sourcePoint" />
            <mxPoint x="449" y="300" as="targetPoint" />
          </mxGeometry>
        </mxCell>
        <mxCell id="UZwSARPS13LZiiZVVfHC-64" value="" style="endArrow=none;html=1;rounded=0;" edge="1" parent="1" source="UZwSARPS13LZiiZVVfHC-27" target="UZwSARPS13LZiiZVVfHC-1">
          <mxGeometry width="50" height="50" relative="1" as="geometry">
            <mxPoint x="384" y="100" as="sourcePoint" />
            <mxPoint x="419" y="300" as="targetPoint" />
          </mxGeometry>
        </mxCell>
        <mxCell id="UZwSARPS13LZiiZVVfHC-65" value="" style="endArrow=none;html=1;rounded=0;" edge="1" parent="1" source="UZwSARPS13LZiiZVVfHC-55" target="UZwSARPS13LZiiZVVfHC-1">
          <mxGeometry width="50" height="50" relative="1" as="geometry">
            <mxPoint x="502" y="100" as="sourcePoint" />
            <mxPoint x="434" y="300" as="targetPoint" />
          </mxGeometry>
        </mxCell>
        <mxCell id="UZwSARPS13LZiiZVVfHC-66" value="" style="endArrow=none;html=1;rounded=0;" edge="1" parent="1" source="UZwSARPS13LZiiZVVfHC-39" target="UZwSARPS13LZiiZVVfHC-1">
          <mxGeometry width="50" height="50" relative="1" as="geometry">
            <mxPoint x="134" y="58" as="sourcePoint" />
            <mxPoint x="392" y="300" as="targetPoint" />
          </mxGeometry>
        </mxCell>
        <mxCell id="UZwSARPS13LZiiZVVfHC-67" value="" style="endArrow=none;html=1;rounded=0;" edge="1" parent="1" source="UZwSARPS13LZiiZVVfHC-24" target="UZwSARPS13LZiiZVVfHC-1">
          <mxGeometry width="50" height="50" relative="1" as="geometry">
            <mxPoint x="253" y="19" as="sourcePoint" />
            <mxPoint x="408" y="300" as="targetPoint" />
          </mxGeometry>
        </mxCell>
        <mxCell id="UZwSARPS13LZiiZVVfHC-68" value="" style="endArrow=none;html=1;rounded=0;" edge="1" parent="1" source="UZwSARPS13LZiiZVVfHC-38" target="UZwSARPS13LZiiZVVfHC-1">
          <mxGeometry width="50" height="50" relative="1" as="geometry">
            <mxPoint x="374" as="sourcePoint" />
            <mxPoint x="419" y="300" as="targetPoint" />
          </mxGeometry>
        </mxCell>
        <mxCell id="UZwSARPS13LZiiZVVfHC-69" value="" style="endArrow=none;html=1;rounded=0;exitX=0.4;exitY=1;exitDx=0;exitDy=0;exitPerimeter=0;" edge="1" parent="1" source="UZwSARPS13LZiiZVVfHC-49" target="UZwSARPS13LZiiZVVfHC-1">
          <mxGeometry width="50" height="50" relative="1" as="geometry">
            <mxPoint x="495" as="sourcePoint" />
            <mxPoint x="430" y="300" as="targetPoint" />
          </mxGeometry>
        </mxCell>
        <mxCell id="UZwSARPS13LZiiZVVfHC-70" value="" style="endArrow=none;html=1;rounded=0;" edge="1" parent="1" source="UZwSARPS13LZiiZVVfHC-29" target="UZwSARPS13LZiiZVVfHC-1">
          <mxGeometry width="50" height="50" relative="1" as="geometry">
            <mxPoint x="618" y="30" as="sourcePoint" />
            <mxPoint x="443" y="300" as="targetPoint" />
          </mxGeometry>
        </mxCell>
        <mxCell id="UZwSARPS13LZiiZVVfHC-23" value="gambar" style="ellipse;whiteSpace=wrap;html=1;" vertex="1" parent="1">
          <mxGeometry x="560" y="160" width="120" height="50" as="geometry" />
        </mxCell>
        <mxCell id="UZwSARPS13LZiiZVVfHC-28" value="direktur" style="ellipse;whiteSpace=wrap;html=1;" vertex="1" parent="1">
          <mxGeometry x="354" y="195" width="120" height="50" as="geometry" />
        </mxCell>
        <mxCell id="UZwSARPS13LZiiZVVfHC-22" value="judul" style="ellipse;whiteSpace=wrap;html=1;" vertex="1" parent="1">
          <mxGeometry x="190" y="180" width="120" height="50" as="geometry" />
        </mxCell>
        <mxCell id="UZwSARPS13LZiiZVVfHC-48" value="berakhir" style="ellipse;whiteSpace=wrap;html=1;" vertex="1" parent="1">
          <mxGeometry x="180" y="40" width="120" height="50" as="geometry" />
        </mxCell>
        <mxCell id="UZwSARPS13LZiiZVVfHC-47" value="tayang" style="ellipse;whiteSpace=wrap;html=1;" vertex="1" parent="1">
          <mxGeometry x="310" y="40" width="120" height="50" as="geometry" />
        </mxCell>
        <mxCell id="UZwSARPS13LZiiZVVfHC-27" value="produser" style="ellipse;whiteSpace=wrap;html=1;" vertex="1" parent="1">
          <mxGeometry x="440" y="40" width="120" height="50" as="geometry" />
        </mxCell>
        <mxCell id="UZwSARPS13LZiiZVVfHC-26" value="deskripsi" style="ellipse;whiteSpace=wrap;html=1;" vertex="1" parent="1">
          <mxGeometry x="570" y="40" width="120" height="50" as="geometry" />
        </mxCell>
        <mxCell id="UZwSARPS13LZiiZVVfHC-25" value="trailer" style="ellipse;whiteSpace=wrap;html=1;" vertex="1" parent="1">
          <mxGeometry x="354" y="110" width="120" height="50" as="geometry" />
        </mxCell>
        <mxCell id="UZwSARPS13LZiiZVVfHC-71" value="waktu" style="rhombus;whiteSpace=wrap;html=1;" vertex="1" parent="1">
          <mxGeometry x="170" y="310" width="110" height="100" as="geometry" />
        </mxCell>
        <mxCell id="UZwSARPS13LZiiZVVfHC-72" value="" style="endArrow=none;html=1;rounded=0;" edge="1" parent="1" source="UZwSARPS13LZiiZVVfHC-71" target="UZwSARPS13LZiiZVVfHC-1">
          <mxGeometry width="50" height="50" relative="1" as="geometry">
            <mxPoint x="189" y="290" as="sourcePoint" />
            <mxPoint x="364" y="320" as="targetPoint" />
          </mxGeometry>
        </mxCell>
        <mxCell id="UZwSARPS13LZiiZVVfHC-73" value="jadwal" style="rounded=0;whiteSpace=wrap;html=1;" vertex="1" parent="1">
          <mxGeometry x="-20" y="460" width="120" height="50" as="geometry" />
        </mxCell>
        <mxCell id="UZwSARPS13LZiiZVVfHC-74" value="id jadwal" style="ellipse;whiteSpace=wrap;html=1;" vertex="1" parent="1">
          <mxGeometry x="10" y="360" width="120" height="40" as="geometry" />
        </mxCell>
        <mxCell id="UZwSARPS13LZiiZVVfHC-75" value="tanggal" style="ellipse;whiteSpace=wrap;html=1;" vertex="1" parent="1">
          <mxGeometry x="-130" y="360" width="120" height="40" as="geometry" />
        </mxCell>
        <mxCell id="UZwSARPS13LZiiZVVfHC-77" value="jam mulai" style="ellipse;whiteSpace=wrap;html=1;" vertex="1" parent="1">
          <mxGeometry x="-190" y="500" width="120" height="40" as="geometry" />
        </mxCell>
        <mxCell id="UZwSARPS13LZiiZVVfHC-78" value="jam selesai" style="ellipse;whiteSpace=wrap;html=1;" vertex="1" parent="1">
          <mxGeometry x="-130" y="565" width="120" height="40" as="geometry" />
        </mxCell>
        <mxCell id="UZwSARPS13LZiiZVVfHC-79" value="harga" style="ellipse;whiteSpace=wrap;html=1;" vertex="1" parent="1">
          <mxGeometry x="10" y="585" width="120" height="40" as="geometry" />
        </mxCell>
        <mxCell id="UZwSARPS13LZiiZVVfHC-81" value="teater" style="rounded=0;whiteSpace=wrap;html=1;" vertex="1" parent="1">
          <mxGeometry x="320" y="500" width="120" height="50" as="geometry" />
        </mxCell>
        <mxCell id="UZwSARPS13LZiiZVVfHC-82" style="edgeStyle=orthogonalEdgeStyle;rounded=0;orthogonalLoop=1;jettySize=auto;html=1;exitX=0.5;exitY=1;exitDx=0;exitDy=0;" edge="1" parent="1" source="UZwSARPS13LZiiZVVfHC-78" target="UZwSARPS13LZiiZVVfHC-78">
          <mxGeometry relative="1" as="geometry" />
        </mxCell>
        <mxCell id="UZwSARPS13LZiiZVVfHC-83" value="" style="endArrow=none;html=1;rounded=0;" edge="1" parent="1" source="UZwSARPS13LZiiZVVfHC-71" target="UZwSARPS13LZiiZVVfHC-73">
          <mxGeometry width="50" height="50" relative="1" as="geometry">
            <mxPoint x="218" y="420" as="sourcePoint" />
            <mxPoint x="364" y="356" as="targetPoint" />
          </mxGeometry>
        </mxCell>
        <mxCell id="UZwSARPS13LZiiZVVfHC-84" value="" style="endArrow=none;html=1;rounded=0;exitX=0.5;exitY=1;exitDx=0;exitDy=0;" edge="1" parent="1" source="UZwSARPS13LZiiZVVfHC-74" target="UZwSARPS13LZiiZVVfHC-73">
          <mxGeometry width="50" height="50" relative="1" as="geometry">
            <mxPoint x="172" y="440" as="sourcePoint" />
            <mxPoint x="106" y="470" as="targetPoint" />
          </mxGeometry>
        </mxCell>
        <mxCell id="UZwSARPS13LZiiZVVfHC-85" value="" style="endArrow=none;html=1;rounded=0;" edge="1" parent="1" source="UZwSARPS13LZiiZVVfHC-75" target="UZwSARPS13LZiiZVVfHC-73">
          <mxGeometry width="50" height="50" relative="1" as="geometry">
            <mxPoint x="80" y="410" as="sourcePoint" />
            <mxPoint x="59" y="470" as="targetPoint" />
          </mxGeometry>
        </mxCell>
        <mxCell id="UZwSARPS13LZiiZVVfHC-86" value="" style="endArrow=none;html=1;rounded=0;" edge="1" parent="1" source="UZwSARPS13LZiiZVVfHC-97" target="UZwSARPS13LZiiZVVfHC-73">
          <mxGeometry width="50" height="50" relative="1" as="geometry">
            <mxPoint x="-78.55042445724757" y="460.2899151085503" as="sourcePoint" />
            <mxPoint x="24" y="470" as="targetPoint" />
          </mxGeometry>
        </mxCell>
        <mxCell id="UZwSARPS13LZiiZVVfHC-87" value="" style="endArrow=none;html=1;rounded=0;" edge="1" parent="1" source="UZwSARPS13LZiiZVVfHC-77" target="UZwSARPS13LZiiZVVfHC-73">
          <mxGeometry width="50" height="50" relative="1" as="geometry">
            <mxPoint x="-69" y="470" as="sourcePoint" />
            <mxPoint x="-10" y="483" as="targetPoint" />
          </mxGeometry>
        </mxCell>
        <mxCell id="UZwSARPS13LZiiZVVfHC-88" value="" style="endArrow=none;html=1;rounded=0;" edge="1" parent="1" source="UZwSARPS13LZiiZVVfHC-78" target="UZwSARPS13LZiiZVVfHC-73">
          <mxGeometry width="50" height="50" relative="1" as="geometry">
            <mxPoint x="-69" y="520" as="sourcePoint" />
            <mxPoint x="-10" y="507" as="targetPoint" />
          </mxGeometry>
        </mxCell>
        <mxCell id="UZwSARPS13LZiiZVVfHC-89" value="" style="endArrow=none;html=1;rounded=0;" edge="1" parent="1" source="UZwSARPS13LZiiZVVfHC-79" target="UZwSARPS13LZiiZVVfHC-73">
          <mxGeometry width="50" height="50" relative="1" as="geometry">
            <mxPoint x="-39" y="576" as="sourcePoint" />
            <mxPoint x="23" y="520" as="targetPoint" />
          </mxGeometry>
        </mxCell>
        <mxCell id="UZwSARPS13LZiiZVVfHC-90" value="" style="endArrow=none;html=1;rounded=0;" edge="1" parent="1" source="UZwSARPS13LZiiZVVfHC-80" target="UZwSARPS13LZiiZVVfHC-73">
          <mxGeometry width="50" height="50" relative="1" as="geometry">
            <mxPoint x="172" y="440" as="sourcePoint" />
            <mxPoint x="106" y="470" as="targetPoint" />
          </mxGeometry>
        </mxCell>
        <mxCell id="UZwSARPS13LZiiZVVfHC-91" value="" style="endArrow=none;html=1;rounded=0;" edge="1" parent="1" source="UZwSARPS13LZiiZVVfHC-80" target="UZwSARPS13LZiiZVVfHC-81">
          <mxGeometry width="50" height="50" relative="1" as="geometry">
            <mxPoint x="188" y="528" as="sourcePoint" />
            <mxPoint x="110" y="510" as="targetPoint" />
          </mxGeometry>
        </mxCell>
        <mxCell id="UZwSARPS13LZiiZVVfHC-94" value="nama teater" style="ellipse;whiteSpace=wrap;html=1;" vertex="1" parent="1">
          <mxGeometry x="420" y="420" width="120" height="40" as="geometry" />
        </mxCell>
        <mxCell id="UZwSARPS13LZiiZVVfHC-95" value="" style="endArrow=none;html=1;rounded=0;" edge="1" parent="1" source="UZwSARPS13LZiiZVVfHC-93" target="UZwSARPS13LZiiZVVfHC-81">
          <mxGeometry width="50" height="50" relative="1" as="geometry">
            <mxPoint x="250" y="535" as="sourcePoint" />
            <mxPoint x="304" y="535" as="targetPoint" />
          </mxGeometry>
        </mxCell>
        <mxCell id="UZwSARPS13LZiiZVVfHC-96" value="" style="endArrow=none;html=1;rounded=0;exitX=0.5;exitY=1;exitDx=0;exitDy=0;" edge="1" parent="1" source="UZwSARPS13LZiiZVVfHC-94" target="UZwSARPS13LZiiZVVfHC-81">
          <mxGeometry width="50" height="50" relative="1" as="geometry">
            <mxPoint x="322" y="470" as="sourcePoint" />
            <mxPoint x="348" y="510" as="targetPoint" />
          </mxGeometry>
        </mxCell>
        <mxCell id="UZwSARPS13LZiiZVVfHC-97" value="ruangan" style="rhombus;whiteSpace=wrap;html=1;" vertex="1" parent="1">
          <mxGeometry x="-200" y="400" width="110" height="90" as="geometry" />
        </mxCell>
        <mxCell id="UZwSARPS13LZiiZVVfHC-98" value="tabel harga" style="rounded=0;whiteSpace=wrap;html=1;" vertex="1" parent="1">
          <mxGeometry x="-300" y="350" width="120" height="50" as="geometry" />
        </mxCell>
        <mxCell id="UZwSARPS13LZiiZVVfHC-99" value="hari" style="ellipse;whiteSpace=wrap;html=1;" vertex="1" parent="1">
          <mxGeometry x="-400" y="290" width="120" height="40" as="geometry" />
        </mxCell>
        <mxCell id="UZwSARPS13LZiiZVVfHC-100" value="spesifikasi harga" style="ellipse;whiteSpace=wrap;html=1;" vertex="1" parent="1">
          <mxGeometry x="-460" y="425" width="120" height="40" as="geometry" />
        </mxCell>
        <mxCell id="UZwSARPS13LZiiZVVfHC-101" value="" style="endArrow=none;html=1;rounded=0;" edge="1" parent="1" source="UZwSARPS13LZiiZVVfHC-98" target="UZwSARPS13LZiiZVVfHC-97">
          <mxGeometry width="50" height="50" relative="1" as="geometry">
            <mxPoint x="-117" y="456" as="sourcePoint" />
            <mxPoint x="-10" y="481" as="targetPoint" />
          </mxGeometry>
        </mxCell>
        <mxCell id="UZwSARPS13LZiiZVVfHC-103" value="" style="endArrow=none;html=1;rounded=0;" edge="1" parent="1" source="UZwSARPS13LZiiZVVfHC-98" target="UZwSARPS13LZiiZVVfHC-97">
          <mxGeometry width="50" height="50" relative="1" as="geometry">
            <mxPoint x="-304" y="428" as="sourcePoint" />
            <mxPoint x="-175" y="446" as="targetPoint" />
          </mxGeometry>
        </mxCell>
        <mxCell id="UZwSARPS13LZiiZVVfHC-104" value="" style="endArrow=none;html=1;rounded=0;" edge="1" parent="1" source="UZwSARPS13LZiiZVVfHC-98" target="UZwSARPS13LZiiZVVfHC-100">
          <mxGeometry width="50" height="50" relative="1" as="geometry">
            <mxPoint x="-190" y="420" as="sourcePoint" />
            <mxPoint x="-165" y="437" as="targetPoint" />
          </mxGeometry>
        </mxCell>
        <mxCell id="UZwSARPS13LZiiZVVfHC-105" value="" style="endArrow=none;html=1;rounded=0;" edge="1" parent="1" source="UZwSARPS13LZiiZVVfHC-98" target="UZwSARPS13LZiiZVVfHC-99">
          <mxGeometry width="50" height="50" relative="1" as="geometry">
            <mxPoint x="-270" y="407" as="sourcePoint" />
            <mxPoint x="-320" y="310" as="targetPoint" />
          </mxGeometry>
        </mxCell>
        <mxCell id="UZwSARPS13LZiiZVVfHC-106" value="kursi" style="rounded=0;whiteSpace=wrap;html=1;" vertex="1" parent="1">
          <mxGeometry x="130" y="770" width="120" height="50" as="geometry" />
        </mxCell>
        <mxCell id="UZwSARPS13LZiiZVVfHC-108" value="id kursi" style="ellipse;whiteSpace=wrap;html=1;" vertex="1" parent="1">
          <mxGeometry x="-70" y="800" width="120" height="40" as="geometry" />
        </mxCell>
        <mxCell id="UZwSARPS13LZiiZVVfHC-109" value="nomer kursi" style="ellipse;whiteSpace=wrap;html=1;" vertex="1" parent="1">
          <mxGeometry x="-30" y="730" width="120" height="40" as="geometry" />
        </mxCell>
        <mxCell id="UZwSARPS13LZiiZVVfHC-110" value="huruf kursi" style="ellipse;whiteSpace=wrap;html=1;" vertex="1" parent="1">
          <mxGeometry x="20" y="670" width="120" height="40" as="geometry" />
        </mxCell>
        <mxCell id="UZwSARPS13LZiiZVVfHC-111" value="status kursi" style="ellipse;whiteSpace=wrap;html=1;" vertex="1" parent="1">
          <mxGeometry x="180" y="640" width="120" height="40" as="geometry" />
        </mxCell>
        <mxCell id="UZwSARPS13LZiiZVVfHC-113" value="" style="endArrow=none;html=1;rounded=0;" edge="1" parent="1" source="UZwSARPS13LZiiZVVfHC-81" target="UZwSARPS13LZiiZVVfHC-107">
          <mxGeometry width="50" height="50" relative="1" as="geometry">
            <mxPoint x="605" y="565" as="sourcePoint" />
            <mxPoint x="590" y="525" as="targetPoint" />
          </mxGeometry>
        </mxCell>
        <mxCell id="UZwSARPS13LZiiZVVfHC-114" value="" style="endArrow=none;html=1;rounded=0;" edge="1" parent="1" source="UZwSARPS13LZiiZVVfHC-106" target="UZwSARPS13LZiiZVVfHC-107">
          <mxGeometry width="50" height="50" relative="1" as="geometry">
            <mxPoint x="450" y="532" as="sourcePoint" />
            <mxPoint x="543" y="528" as="targetPoint" />
          </mxGeometry>
        </mxCell>
        <mxCell id="UZwSARPS13LZiiZVVfHC-115" value="" style="endArrow=none;html=1;rounded=0;" edge="1" parent="1" source="UZwSARPS13LZiiZVVfHC-106" target="UZwSARPS13LZiiZVVfHC-108">
          <mxGeometry width="50" height="50" relative="1" as="geometry">
            <mxPoint x="810" y="509" as="sourcePoint" />
            <mxPoint x="646" y="521" as="targetPoint" />
          </mxGeometry>
        </mxCell>
        <mxCell id="UZwSARPS13LZiiZVVfHC-116" value="" style="endArrow=none;html=1;rounded=0;entryX=0.5;entryY=1;entryDx=0;entryDy=0;" edge="1" parent="1" source="UZwSARPS13LZiiZVVfHC-106" target="UZwSARPS13LZiiZVVfHC-109">
          <mxGeometry width="50" height="50" relative="1" as="geometry">
            <mxPoint x="810" y="484" as="sourcePoint" />
            <mxPoint x="752" y="464" as="targetPoint" />
          </mxGeometry>
        </mxCell>
        <mxCell id="UZwSARPS13LZiiZVVfHC-117" value="" style="endArrow=none;html=1;rounded=0;" edge="1" parent="1" source="UZwSARPS13LZiiZVVfHC-106" target="UZwSARPS13LZiiZVVfHC-110">
          <mxGeometry width="50" height="50" relative="1" as="geometry">
            <mxPoint x="850" y="480" as="sourcePoint" />
            <mxPoint x="810" y="430" as="targetPoint" />
          </mxGeometry>
        </mxCell>
        <mxCell id="UZwSARPS13LZiiZVVfHC-118" value="" style="endArrow=none;html=1;rounded=0;" edge="1" parent="1" source="UZwSARPS13LZiiZVVfHC-106" target="UZwSARPS13LZiiZVVfHC-111">
          <mxGeometry width="50" height="50" relative="1" as="geometry">
            <mxPoint x="880" y="480" as="sourcePoint" />
            <mxPoint x="934" y="429" as="targetPoint" />
          </mxGeometry>
        </mxCell>
        <mxCell id="UZwSARPS13LZiiZVVfHC-15" value="dimension" style="rounded=0;whiteSpace=wrap;html=1;" vertex="1" parent="1">
          <mxGeometry x="90" y="100" width="120" height="60" as="geometry" />
        </mxCell>
        <mxCell id="UZwSARPS13LZiiZVVfHC-119" value="order" style="rounded=0;whiteSpace=wrap;html=1;" vertex="1" parent="1">
          <mxGeometry x="680" y="460" width="120" height="50" as="geometry" />
        </mxCell>
        <mxCell id="UZwSARPS13LZiiZVVfHC-120" value="id order" style="ellipse;whiteSpace=wrap;html=1;" vertex="1" parent="1">
          <mxGeometry x="530" y="465" width="120" height="40" as="geometry" />
        </mxCell>
        <mxCell id="UZwSARPS13LZiiZVVfHC-121" value="tanggal" style="ellipse;whiteSpace=wrap;html=1;" vertex="1" parent="1">
          <mxGeometry x="567.5" y="525" width="120" height="40" as="geometry" />
        </mxCell>
        <mxCell id="UZwSARPS13LZiiZVVfHC-122" value="user" style="rounded=0;whiteSpace=wrap;html=1;" vertex="1" parent="1">
          <mxGeometry x="1130" y="265" width="160" height="65" as="geometry" />
        </mxCell>
        <mxCell id="UZwSARPS13LZiiZVVfHC-123" value="id user" style="ellipse;whiteSpace=wrap;html=1;" vertex="1" parent="1">
          <mxGeometry x="1370" y="240" width="120" height="50" as="geometry" />
        </mxCell>
        <mxCell id="UZwSARPS13LZiiZVVfHC-124" value="akses" style="rhombus;whiteSpace=wrap;html=1;" vertex="1" parent="1">
          <mxGeometry x="1140" y="415" width="130" height="90" as="geometry" />
        </mxCell>
        <mxCell id="UZwSARPS13LZiiZVVfHC-125" value="usermame" style="ellipse;whiteSpace=wrap;html=1;" vertex="1" parent="1">
          <mxGeometry x="960" y="190" width="120" height="60" as="geometry" />
        </mxCell>
        <mxCell id="UZwSARPS13LZiiZVVfHC-126" value="password" style="ellipse;whiteSpace=wrap;html=1;" vertex="1" parent="1">
          <mxGeometry x="1070" y="130" width="120" height="60" as="geometry" />
        </mxCell>
        <mxCell id="UZwSARPS13LZiiZVVfHC-127" value="nama user" style="ellipse;whiteSpace=wrap;html=1;" vertex="1" parent="1">
          <mxGeometry x="1310" y="170" width="120" height="60" as="geometry" />
        </mxCell>
        <mxCell id="UZwSARPS13LZiiZVVfHC-128" value="telepon" style="ellipse;whiteSpace=wrap;html=1;" vertex="1" parent="1">
          <mxGeometry x="1200" y="130" width="120" height="60" as="geometry" />
        </mxCell>
        <mxCell id="UZwSARPS13LZiiZVVfHC-129" value="saldo" style="ellipse;whiteSpace=wrap;html=1;" vertex="1" parent="1">
          <mxGeometry x="1370" y="310" width="120" height="60" as="geometry" />
        </mxCell>
        <mxCell id="UZwSARPS13LZiiZVVfHC-131" value="" style="endArrow=none;html=1;rounded=0;" edge="1" parent="1" source="UZwSARPS13LZiiZVVfHC-124" target="UZwSARPS13LZiiZVVfHC-122">
          <mxGeometry width="50" height="50" relative="1" as="geometry">
            <mxPoint x="800" y="156" as="sourcePoint" />
            <mxPoint x="837" y="166" as="targetPoint" />
          </mxGeometry>
        </mxCell>
        <mxCell id="UZwSARPS13LZiiZVVfHC-132" value="" style="endArrow=none;html=1;rounded=0;" edge="1" parent="1" source="UZwSARPS13LZiiZVVfHC-122" target="UZwSARPS13LZiiZVVfHC-125">
          <mxGeometry width="50" height="50" relative="1" as="geometry">
            <mxPoint x="1311" y="417" as="sourcePoint" />
            <mxPoint x="1247" y="340" as="targetPoint" />
          </mxGeometry>
        </mxCell>
        <mxCell id="UZwSARPS13LZiiZVVfHC-133" value="" style="endArrow=none;html=1;rounded=0;" edge="1" parent="1" source="UZwSARPS13LZiiZVVfHC-122" target="UZwSARPS13LZiiZVVfHC-126">
          <mxGeometry width="50" height="50" relative="1" as="geometry">
            <mxPoint x="1140" y="275" as="sourcePoint" />
            <mxPoint x="1077" y="249" as="targetPoint" />
          </mxGeometry>
        </mxCell>
        <mxCell id="UZwSARPS13LZiiZVVfHC-134" value="" style="endArrow=none;html=1;rounded=0;" edge="1" parent="1" source="UZwSARPS13LZiiZVVfHC-122" target="UZwSARPS13LZiiZVVfHC-128">
          <mxGeometry width="50" height="50" relative="1" as="geometry">
            <mxPoint x="1201" y="275" as="sourcePoint" />
            <mxPoint x="1157" y="199" as="targetPoint" />
          </mxGeometry>
        </mxCell>
        <mxCell id="UZwSARPS13LZiiZVVfHC-135" value="" style="endArrow=none;html=1;rounded=0;" edge="1" parent="1" source="UZwSARPS13LZiiZVVfHC-122" target="UZwSARPS13LZiiZVVfHC-127">
          <mxGeometry width="50" height="50" relative="1" as="geometry">
            <mxPoint x="1232" y="275" as="sourcePoint" />
            <mxPoint x="1259" y="200" as="targetPoint" />
          </mxGeometry>
        </mxCell>
        <mxCell id="UZwSARPS13LZiiZVVfHC-136" value="" style="endArrow=none;html=1;rounded=0;" edge="1" parent="1" source="UZwSARPS13LZiiZVVfHC-122" target="UZwSARPS13LZiiZVVfHC-123">
          <mxGeometry width="50" height="50" relative="1" as="geometry">
            <mxPoint x="1273" y="275" as="sourcePoint" />
            <mxPoint x="1342" y="233" as="targetPoint" />
          </mxGeometry>
        </mxCell>
        <mxCell id="UZwSARPS13LZiiZVVfHC-137" value="" style="endArrow=none;html=1;rounded=0;" edge="1" parent="1" source="UZwSARPS13LZiiZVVfHC-122" target="UZwSARPS13LZiiZVVfHC-129">
          <mxGeometry width="50" height="50" relative="1" as="geometry">
            <mxPoint x="1300" y="296" as="sourcePoint" />
            <mxPoint x="1383" y="283" as="targetPoint" />
          </mxGeometry>
        </mxCell>
        <mxCell id="UZwSARPS13LZiiZVVfHC-139" value="role" style="rounded=0;whiteSpace=wrap;html=1;" vertex="1" parent="1">
          <mxGeometry x="1155" y="585" width="100" height="35" as="geometry" />
        </mxCell>
        <mxCell id="UZwSARPS13LZiiZVVfHC-140" value="id role" style="ellipse;whiteSpace=wrap;html=1;" vertex="1" parent="1">
          <mxGeometry x="1320" y="610" width="120" height="45" as="geometry" />
        </mxCell>
        <mxCell id="UZwSARPS13LZiiZVVfHC-141" value="nama role" style="ellipse;whiteSpace=wrap;html=1;" vertex="1" parent="1">
          <mxGeometry x="1240" y="670" width="120" height="50" as="geometry" />
        </mxCell>
        <mxCell id="UZwSARPS13LZiiZVVfHC-142" value="" style="endArrow=none;html=1;rounded=0;" edge="1" parent="1" source="UZwSARPS13LZiiZVVfHC-124" target="UZwSARPS13LZiiZVVfHC-139">
          <mxGeometry width="50" height="50" relative="1" as="geometry">
            <mxPoint x="1311" y="417" as="sourcePoint" />
            <mxPoint x="1247" y="340" as="targetPoint" />
          </mxGeometry>
        </mxCell>
        <mxCell id="UZwSARPS13LZiiZVVfHC-143" value="" style="endArrow=none;html=1;rounded=0;" edge="1" parent="1" source="UZwSARPS13LZiiZVVfHC-140" target="UZwSARPS13LZiiZVVfHC-139">
          <mxGeometry width="50" height="50" relative="1" as="geometry">
            <mxPoint x="1361" y="472" as="sourcePoint" />
            <mxPoint x="1413" y="528" as="targetPoint" />
          </mxGeometry>
        </mxCell>
        <mxCell id="UZwSARPS13LZiiZVVfHC-144" value="" style="endArrow=none;html=1;rounded=0;" edge="1" parent="1" source="UZwSARPS13LZiiZVVfHC-141" target="UZwSARPS13LZiiZVVfHC-139">
          <mxGeometry width="50" height="50" relative="1" as="geometry">
            <mxPoint x="1501" y="541" as="sourcePoint" />
            <mxPoint x="1480" y="542" as="targetPoint" />
          </mxGeometry>
        </mxCell>
        <mxCell id="UZwSARPS13LZiiZVVfHC-145" value="Topup" style="rounded=0;whiteSpace=wrap;html=1;" vertex="1" parent="1">
          <mxGeometry x="1430" y="432.5" width="150" height="55" as="geometry" />
        </mxCell>
        <mxCell id="UZwSARPS13LZiiZVVfHC-147" value="id topup" style="ellipse;whiteSpace=wrap;html=1;" vertex="1" parent="1">
          <mxGeometry x="1520" y="330" width="120" height="60" as="geometry" />
        </mxCell>
        <mxCell id="UZwSARPS13LZiiZVVfHC-148" value="tanggal topup" style="ellipse;whiteSpace=wrap;html=1;" vertex="1" parent="1">
          <mxGeometry x="1600" y="390" width="120" height="60" as="geometry" />
        </mxCell>
        <mxCell id="UZwSARPS13LZiiZVVfHC-149" value="pelaku" style="rhombus;whiteSpace=wrap;html=1;" vertex="1" parent="1">
          <mxGeometry x="1270" y="370" width="130" height="90" as="geometry" />
        </mxCell>
        <mxCell id="UZwSARPS13LZiiZVVfHC-150" value="" style="endArrow=none;html=1;rounded=0;" edge="1" parent="1" source="UZwSARPS13LZiiZVVfHC-122" target="UZwSARPS13LZiiZVVfHC-149">
          <mxGeometry width="50" height="50" relative="1" as="geometry">
            <mxPoint x="1300" y="323" as="sourcePoint" />
            <mxPoint x="1384" y="339" as="targetPoint" />
          </mxGeometry>
        </mxCell>
        <mxCell id="UZwSARPS13LZiiZVVfHC-151" value="" style="endArrow=none;html=1;rounded=0;" edge="1" parent="1" source="UZwSARPS13LZiiZVVfHC-145" target="UZwSARPS13LZiiZVVfHC-149">
          <mxGeometry width="50" height="50" relative="1" as="geometry">
            <mxPoint x="1255" y="340" as="sourcePoint" />
            <mxPoint x="1317" y="399" as="targetPoint" />
          </mxGeometry>
        </mxCell>
        <mxCell id="UZwSARPS13LZiiZVVfHC-152" value="total topup" style="ellipse;whiteSpace=wrap;html=1;" vertex="1" parent="1">
          <mxGeometry x="1600" y="460" width="120" height="60" as="geometry" />
        </mxCell>
        <mxCell id="UZwSARPS13LZiiZVVfHC-153" value="status topup" style="ellipse;whiteSpace=wrap;html=1;" vertex="1" parent="1">
          <mxGeometry x="1540" y="530" width="120" height="60" as="geometry" />
        </mxCell>
        <mxCell id="UZwSARPS13LZiiZVVfHC-154" value="bukti topup" style="ellipse;whiteSpace=wrap;html=1;" vertex="1" parent="1">
          <mxGeometry x="1400" y="530" width="120" height="60" as="geometry" />
        </mxCell>
        <mxCell id="UZwSARPS13LZiiZVVfHC-155" value="" style="endArrow=none;html=1;rounded=0;" edge="1" parent="1" source="UZwSARPS13LZiiZVVfHC-145" target="UZwSARPS13LZiiZVVfHC-154">
          <mxGeometry width="50" height="50" relative="1" as="geometry">
            <mxPoint x="1440" y="450" as="sourcePoint" />
            <mxPoint x="1392" y="437" as="targetPoint" />
          </mxGeometry>
        </mxCell>
        <mxCell id="UZwSARPS13LZiiZVVfHC-156" value="" style="endArrow=none;html=1;rounded=0;" edge="1" parent="1" source="UZwSARPS13LZiiZVVfHC-145" target="UZwSARPS13LZiiZVVfHC-153">
          <mxGeometry width="50" height="50" relative="1" as="geometry">
            <mxPoint x="1503" y="498" as="sourcePoint" />
            <mxPoint x="1483" y="541" as="targetPoint" />
          </mxGeometry>
        </mxCell>
        <mxCell id="UZwSARPS13LZiiZVVfHC-157" value="" style="endArrow=none;html=1;rounded=0;" edge="1" parent="1" source="UZwSARPS13LZiiZVVfHC-145" target="UZwSARPS13LZiiZVVfHC-152">
          <mxGeometry width="50" height="50" relative="1" as="geometry">
            <mxPoint x="1541" y="498" as="sourcePoint" />
            <mxPoint x="1584" y="543" as="targetPoint" />
          </mxGeometry>
        </mxCell>
        <mxCell id="UZwSARPS13LZiiZVVfHC-158" value="" style="endArrow=none;html=1;rounded=0;" edge="1" parent="1" source="UZwSARPS13LZiiZVVfHC-145" target="UZwSARPS13LZiiZVVfHC-148">
          <mxGeometry width="50" height="50" relative="1" as="geometry">
            <mxPoint x="1590" y="485" as="sourcePoint" />
            <mxPoint x="1614" y="489" as="targetPoint" />
          </mxGeometry>
        </mxCell>
        <mxCell id="UZwSARPS13LZiiZVVfHC-159" value="" style="endArrow=none;html=1;rounded=0;" edge="1" parent="1" source="UZwSARPS13LZiiZVVfHC-145" target="UZwSARPS13LZiiZVVfHC-147">
          <mxGeometry width="50" height="50" relative="1" as="geometry">
            <mxPoint x="1590" y="451" as="sourcePoint" />
            <mxPoint x="1617" y="444" as="targetPoint" />
          </mxGeometry>
        </mxCell>
        <mxCell id="UZwSARPS13LZiiZVVfHC-162" value="jadwal" style="rhombus;whiteSpace=wrap;html=1;" vertex="1" parent="1">
          <mxGeometry x="570" y="340" width="85" height="70" as="geometry" />
        </mxCell>
        <mxCell id="UZwSARPS13LZiiZVVfHC-163" value="pelaku" style="rhombus;whiteSpace=wrap;html=1;" vertex="1" parent="1">
          <mxGeometry x="687.5" y="325" width="85" height="70" as="geometry" />
        </mxCell>
        <mxCell id="UZwSARPS13LZiiZVVfHC-164" value="" style="endArrow=none;html=1;rounded=0;" edge="1" parent="1" source="UZwSARPS13LZiiZVVfHC-119" target="UZwSARPS13LZiiZVVfHC-162">
          <mxGeometry width="50" height="50" relative="1" as="geometry">
            <mxPoint x="230" y="780" as="sourcePoint" />
            <mxPoint x="343" y="688" as="targetPoint" />
          </mxGeometry>
        </mxCell>
        <mxCell id="UZwSARPS13LZiiZVVfHC-165" value="" style="endArrow=none;html=1;rounded=0;" edge="1" parent="1" source="UZwSARPS13LZiiZVVfHC-119" target="UZwSARPS13LZiiZVVfHC-163">
          <mxGeometry width="50" height="50" relative="1" as="geometry">
            <mxPoint x="560" y="770" as="sourcePoint" />
            <mxPoint x="497" y="730" as="targetPoint" />
          </mxGeometry>
        </mxCell>
        <mxCell id="UZwSARPS13LZiiZVVfHC-166" value="" style="endArrow=none;html=1;rounded=0;" edge="1" parent="1" source="UZwSARPS13LZiiZVVfHC-119" target="UZwSARPS13LZiiZVVfHC-120">
          <mxGeometry width="50" height="50" relative="1" as="geometry">
            <mxPoint x="581" y="770" as="sourcePoint" />
            <mxPoint x="562" y="702" as="targetPoint" />
          </mxGeometry>
        </mxCell>
        <mxCell id="UZwSARPS13LZiiZVVfHC-167" value="" style="endArrow=none;html=1;rounded=0;" edge="1" parent="1" source="UZwSARPS13LZiiZVVfHC-119" target="UZwSARPS13LZiiZVVfHC-121">
          <mxGeometry width="50" height="50" relative="1" as="geometry">
            <mxPoint x="609" y="760" as="sourcePoint" />
            <mxPoint x="655" y="699" as="targetPoint" />
          </mxGeometry>
        </mxCell>
        <mxCell id="UZwSARPS13LZiiZVVfHC-168" value="" style="endArrow=none;html=1;rounded=0;" edge="1" parent="1" source="UZwSARPS13LZiiZVVfHC-162" target="UZwSARPS13LZiiZVVfHC-73">
          <mxGeometry width="50" height="50" relative="1" as="geometry">
            <mxPoint x="645" y="760" as="sourcePoint" />
            <mxPoint x="741" y="716" as="targetPoint" />
          </mxGeometry>
        </mxCell>
        <mxCell id="UZwSARPS13LZiiZVVfHC-107" value="duduk" style="rhombus;whiteSpace=wrap;html=1;" vertex="1" parent="1">
          <mxGeometry x="305" y="610" width="110" height="90" as="geometry" />
        </mxCell>
        <mxCell id="UZwSARPS13LZiiZVVfHC-80" value="ruangan" style="rhombus;whiteSpace=wrap;html=1;" vertex="1" parent="1">
          <mxGeometry x="160" y="480" width="100" height="110" as="geometry" />
        </mxCell>
        <mxCell id="UZwSARPS13LZiiZVVfHC-169" value="" style="endArrow=none;html=1;rounded=0;exitX=0;exitY=0.5;exitDx=0;exitDy=0;" edge="1" parent="1" source="UZwSARPS13LZiiZVVfHC-122" target="UZwSARPS13LZiiZVVfHC-163">
          <mxGeometry width="50" height="50" relative="1" as="geometry">
            <mxPoint x="980" y="360" as="sourcePoint" />
            <mxPoint x="562" y="702" as="targetPoint" />
          </mxGeometry>
        </mxCell>
        <mxCell id="UZwSARPS13LZiiZVVfHC-93" value="id teater" style="ellipse;whiteSpace=wrap;html=1;" vertex="1" parent="1">
          <mxGeometry x="240" y="420" width="120" height="40" as="geometry" />
        </mxCell>
        <mxCell id="UZwSARPS13LZiiZVVfHC-170" value="ststus order" style="ellipse;whiteSpace=wrap;html=1;" vertex="1" parent="1">
          <mxGeometry x="750" y="385" width="120" height="40" as="geometry" />
        </mxCell>
        <mxCell id="UZwSARPS13LZiiZVVfHC-171" value="total" style="ellipse;whiteSpace=wrap;html=1;" vertex="1" parent="1">
          <mxGeometry x="860" y="432.5" width="120" height="40" as="geometry" />
        </mxCell>
        <mxCell id="UZwSARPS13LZiiZVVfHC-172" value="" style="endArrow=none;html=1;rounded=0;" edge="1" parent="1" source="UZwSARPS13LZiiZVVfHC-119" target="UZwSARPS13LZiiZVVfHC-170">
          <mxGeometry width="50" height="50" relative="1" as="geometry">
            <mxPoint x="703" y="520" as="sourcePoint" />
            <mxPoint x="810" y="385" as="targetPoint" />
          </mxGeometry>
        </mxCell>
        <mxCell id="UZwSARPS13LZiiZVVfHC-173" value="" style="endArrow=none;html=1;rounded=0;" edge="1" parent="1" source="UZwSARPS13LZiiZVVfHC-119" target="UZwSARPS13LZiiZVVfHC-171">
          <mxGeometry width="50" height="50" relative="1" as="geometry">
            <mxPoint x="750" y="520" as="sourcePoint" />
            <mxPoint x="750" y="590" as="targetPoint" />
          </mxGeometry>
        </mxCell>
        <mxCell id="UZwSARPS13LZiiZVVfHC-174" value="order" style="rounded=0;whiteSpace=wrap;html=1;" vertex="1" parent="1">
          <mxGeometry x="827" y="650" width="120" height="50" as="geometry" />
        </mxCell>
      </root>
    </mxGraphModel>
  </diagram>
</mxfile>
